PathFileType	4	(X/Y/Z)	E:\Qualisys_Data\Carbon_Farble_Plate\Data\Amateur_Runner\S14\T1\S14T1V25_c3d.trc
DataRate	CameraRate	NumFrames	NumMarkers	Units	OrigDataRate	OrigDataStartFrame	OrigNumFrames
200.000000	200.000000	4	39	mm	200.000000	75	303
Frame#	Time	LSHO			RSHO			LICST			RICST			LASIS			LHEEL			RASIS			LTROC			RTROC			SACR			LTH1			LSK4			LTH2			LTH3			RHM5			LSK2			LTH4			RTH1			LTOE			RTH2			RTH3			RTH4			LLEP			RLEP			LSK1			LSK3			RSK1			LHM5			RSK2			LFT1			RSK3			RSK4			LLME			RLME			RTOE			RHEEL			RFT1			RFT2			LFT2			
		X1	Y1	Z1	X2	Y2	Z2	X3	Y3	Z3	X4	Y4	Z4	X5	Y5	Z5	X6	Y6	Z6	X7	Y7	Z7	X8	Y8	Z8	X9	Y9	Z9	X10	Y10	Z10	X11	Y11	Z11	X12	Y12	Z12	X13	Y13	Z13	X14	Y14	Z14	X15	Y15	Z15	X16	Y16	Z16	X17	Y17	Z17	X18	Y18	Z18	X19	Y19	Z19	X20	Y20	Z20	X21	Y21	Z21	X22	Y22	Z22	X23	Y23	Z23	X24	Y24	Z24	X25	Y25	Z25	X26	Y26	Z26	X27	Y27	Z27	X28	Y28	Z28	X29	Y29	Z29	X30	Y30	Z30	X31	Y31	Z31	X32	Y32	Z32	X33	Y33	Z33	X34	Y34	Z34	X35	Y35	Z35	X36	Y36	Z36	X37	Y37	Z37	X38	Y38	Z38	X39	Y39	Z39	

76	0.375	-1379.961303710938	1478.05712890625	-519.0524291992188	-1264.763305664062	1468.309814453125	-253.0603942871094	-1372.07958984375	1018.837707519531	-490.8223266601562	-1323.7998046875	1017.969360351562	-222.1118011474609	-1328.885620117188	966.7861938476562	-464.7128295898438	-1202.957275390625	134.8730926513672	-375.5943298339844	-1308.271484375	970.2655639648438	-238.6337280273438	-1457.770263671875	903.5621948242188	-508.5575561523438	-1469.888305664062	952.9993286132812	-178.8895263671875	-1486.781494140625	1031.111938476562	-346.8292236328125	-1264.864868164062	716.2543334960938	-512.349609375	-1228.19921875	352.3222961425781	-458.7317199707031	-1326.860595703125	676.8965454101562	-484.5032348632812	-1201.511840820312	641.2791748046875	-486.117431640625	-1966.846435546875	233.5322875976562	-190.1676635742188	-1239.170654296875	450.372802734375	-475.4461975097656	-1267.519165039062	600.29931640625	-467.4209289550781	-1446.287719726562	683.1771240234375	-184.9645385742188	-954.3760986328124	193.7110290527344	-423.946044921875	-1515.2626953125	720.2843627929688	-173.5393371582031	-1490.162353515625	594.9365234375	-207.8449401855469	-1564.830688476562	632.9995727539062	-192.0210266113281	-1197.359375	568.3270263671875	-474.3302001953125	-1586.40966796875	561.514892578125	-200.1778106689453	-1157.630737304688	459.8940734863281	-476.77587890625	-1147.73779296875	359.1790771484375	-463.8920288085938	-1676.087646484375	472.8346862792969	-193.9619903564453	-1018.55419921875	155.4682006835938	-477.4869689941406	-1722.685668945312	544.5333862304688	-199.99072265625	-1182.412353515625	116.8126220703125	-351.1524658203125	-1767.207641601562	421.9401245117188	-207.7074127197266	-1802.637329101562	492.2096557617188	-213.4958648681641	-1160.713012695312	176.5497741699219	-440.7051086425781	-1935.960571289062	376.6192016601562	-229.0645141601562	-1936.687255859375	159.4474029541016	-242.1806030273438	-1968.33203125	413.8983154296875	-287.4016723632812	-1990.43017578125	389.8069458007812	-320.5294189453125	-1992.812866210938	410.0682678222656	-264.4197692871094	-1195.4970703125	107.1514282226562	-403.3667297363281
77	0.38	-1358.75537109375	1476.81689453125	-520.10107421875	-1243.3505859375	1468.046630859375	-254.3070373535156	-1349.907104492188	1017.503051757812	-491.2648315429688	-1302.354614257812	1017.949157714844	-221.5110626220703	-1307.8994140625	965.79052734375	-464.711669921875	-1173.005493164062	129.8737945556641	-375.1869812011719	-1287.12158203125	970.4364013671876	-237.9811401367188	-1437.228515625	901.9388427734376	-508.0917053222656	-1448.266235351562	952.0315551757812	-179.0799102783203	-1465.396606445312	1029.653686523438	-347.3844299316406	-1248.502807617188	710.63330078125	-514.1051025390625	-1206.450805664062	346.8230895996094	-458.6072998046875	-1310.039428710938	673.3917846679688	-483.0897521972656	-1185.467529296875	635.1903686523438	-487.5107116699219	-1951.565185546875	242.1448669433594	-189.1890258789062	-1219.88330078125	444.7056884765625	-475.3107604980469	-1252.178833007812	595.9688110351562	-466.0372619628906	-1423.10107421875	682.5204467773438	-184.9627075195312	-927.3602905273438	196.4500274658203	-424.6260986328125	-1492.576538085938	719.4883422851562	-173.2876281738281	-1467.416870117188	593.3480834960938	-208.5006408691406	-1541.599975585938	631.8865966796875	-192.117919921875	-1181.867309570312	562.193603515625	-473.9625244140625	-1563.3740234375	560.9931030273438	-199.7044067382812	-1138.544799804688	456.0608825683594	-476.4309692382812	-1125.948608398438	355.6853942871094	-464.5850219726562	-1654.53076171875	473.5915832519531	-194.1967010498047	-989.7298583984376	155.2911071777344	-478.0955505371094	-1699.419555664062	546.6726684570312	-200.4152069091797	-1152.555908203125	112.5752487182617	-351.0602722167969	-1745.5771484375	424.4008483886719	-206.6476898193359	-1779.925537109375	496.0390319824219	-212.9796447753906	-1132.469360351562	172.5197296142578	-440.8354187011719	-1915.366577148438	384.5325012207031	-228.1905670166016	-1922.5361328125	167.75439453125	-242.3738708496094	-1947.66650390625	422.3925476074219	-287.5382080078125	-1970.00390625	398.2144775390625	-319.7699890136719	-1972.190673828125	419.6909790039062	-264.5882568359375	-1165.298583984375	101.8526611328125	-403.517578125
78	0.385	-1338.080200195312	1475.653076171875	-521.4472045898438	-1221.79833984375	1467.193481445312	-255.3300018310547	-1329.513671875	1016.102294921875	-492.1045532226562	-1281.5859375	1017.4423828125	-221.4678802490234	-1286.294799804688	964.3977661132812	-464.2758483886719	-1145.558959960938	125.0479736328125	-375.3363952636719	-1265.769409179688	970.2949829101562	-237.6799163818359	-1416.706665039062	899.640380859375	-507.6919860839844	-1426.768188476562	950.8009643554688	-179.4724578857422	-1444.80322265625	1028.326782226562	-347.8973083496094	-1230.598022460938	704.891357421875	-515.0283813476562	-1184.159301757812	341.4494934082031	-458.4198913574219	-1293.392822265625	669.2954711914062	-482.1582641601562	-1170.062133789062	629.1854858398438	-488.6259460449219	-1933.8798828125	250.9560546875	-188.9803314208984	-1200.6796875	438.9285888671875	-474.7625122070312	-1236.773803710938	591.553955078125	-464.7593688964844	-1399.60302734375	681.8735961914062	-184.7228851318359	-901.770751953125	198.2826538085938	-425.0859069824219	-1469.287353515625	718.1888427734375	-173.3608703613281	-1443.1455078125	592.74609375	-207.2798156738281	-1517.775756835938	630.2249145507812	-191.4401702880859	-1165.523803710938	556.8287353515625	-473.2680969238281	-1539.31884765625	559.486083984375	-199.9389343261719	-1119.718383789062	452.12890625	-476.2203369140625	-1105.207275390625	352.22802734375	-464.5869750976562	-1631.872192382812	473.4258422851562	-194.6287994384766	-962.586181640625	154.8426361083984	-478.2852783203125	-1674.128295898438	548.2250366210938	-199.8725738525391	-1124.853515625	108.499397277832	-351.5361328125	-1724.636474609375	427.0172424316406	-206.9709777832031	-1757.664428710938	499.7700805664062	-213.2757415771484	-1105.832885742188	168.2592010498047	-440.6101989746094	-1896.652099609375	391.7129211425781	-228.9796600341797	-1907.938232421875	175.6605529785156	-242.0366363525391	-1923.817138671875	431.4803161621094	-287.8087158203125	-1950.0390625	407.4882202148438	-320.2121887207031	-1951.580078125	428.8650817871094	-264.7245483398438	-1137.181518554688	96.79176330566406	-403.6445922851562
79	0.39	-1316.84912109375	1473.843872070312	-522.7962646484375	-1200.4638671875	1466.101318359375	-256.4080505371094	-1308.105224609375	1013.842651367188	-491.9262084960938	-1261.212890625	1017.125793457031	-222.0320739746094	-1264.289428710938	962.6708984375	-464.2196044921875	-1120.375366210938	120.1059494018555	-376.7537231445312	-1244.385986328125	969.7283325195312	-237.3348388671875	-1395.113403320312	897.2718505859375	-506.98486328125	-1405.522216796875	949.152099609375	-179.6705627441406	-1423.462646484375	1026.81494140625	-348.1203002929688	-1214.388916015625	699.4683227539062	-516.222900390625	-1164.089599609375	336.4241333007812	-457.9106140136719	-1277.4873046875	665.6837768554688	-481.6900024414062	-1154.05419921875	623.25	-489.49658203125	-1915.687744140625	259.5199584960938	-188.5374450683594	-1182.062133789062	433.6553039550781	-474.2236938476562	-1221.07666015625	587.0065307617188	-463.4348754882812	-1376.698852539062	680.4095458984375	-184.6973114013672	-877.8665771484375	199.2499542236328	-425.39697265625	-1445.896850585938	716.1364135742188	-172.6075134277344	-1418.952758789062	590.6849975585938	-207.0558319091797	-1494.38818359375	628.1602172851562	-191.4129028320312	-1148.970703125	552.01611328125	-472.5499572753906	-1514.883422851562	557.3746948242188	-199.2807922363281	-1101.199462890625	448.3271179199219	-476.1540832519531	-1084.345825195312	348.8754272460938	-464.9691467285156	-1609.115356445312	473.1633911132812	-193.6903991699219	-937.3807373046876	153.4868927001953	-477.8912048339844	-1649.722290039062	548.5803833007812	-199.6863861083984	-1098.469970703125	104.3136291503906	-352.6078491210938	-1703.981079101562	429.7543640136719	-207.3362426757812	-1733.3740234375	502.9285888671875	-212.4976806640625	-1081.772583007812	164.4998931884766	-441.4564819335938	-1873.923461914062	398.9954528808594	-228.0686645507812	-1891.675903320312	183.2339477539062	-241.8511810302734	-1902.235473632812	439.2272338867188	-287.8968811035156	-1929.033325195312	416.3258666992188	-319.4593200683594	-1929.003662109375	437.67333984375	-264.2619934082031	-1110.366821289062	91.28038787841795	-402.9584350585938
